<svg width="48" height="48" viewBox="0 0 48 48" fill="none" xmlns="http://www.w3.org/2000/svg">
<path d="M24 39.8667C10.0392 39.8667 8.13333 26.8 8.13333 23.0667H39.8667C39.8667 24.9333 38.0392 39.8667 24 39.8667Z" fill="#CCD6DD"/>
<path d="M39.8667 23.1189C39.8667 27.9872 32.7631 31.9333 24 31.9333C15.2369 31.9333 8.13333 27.9863 8.13333 23.1189C8.13333 18.2507 15.2369 15.2379 24 15.2379C32.7631 15.2369 39.8667 18.2507 39.8667 23.1189Z" fill="#66757F"/>
<path d="M9.72751 24.8167C8.97337 23.7331 7.55004 21.55 9.06671 18.2833C9.72751 16.5725 11.1014 15.4581 11.2834 15.9892C11.7108 17.2333 12.5667 18.3225 13.85 18.2059C13.8332 18.6473 13.2256 14.1841 15.3667 12.9941C16.4167 12.4108 17.5442 13.3441 18.8275 15.4049C20.8827 18.7061 26.1178 17.1633 27.5868 16.2991C29.0746 15.4236 30.3775 14.8505 29.9883 12.5079C29.9024 11.9936 30.6818 11.5475 31.477 11.9731C32.8126 12.688 34.7418 14.466 35.0824 16.4167C36.0354 16.6696 36.7494 16.2645 37.2991 15.1529C37.5716 14.6023 38.505 14.4725 38.9044 15.1912C39.6082 16.4568 40.7636 20.3497 39.1275 23.6892C37.2608 27.5 34.4216 29.5225 28.0442 30.3392C21.6667 31.1559 13.4608 30.1833 9.72751 24.8167V24.8167Z" fill="#77B255"/>
<path d="M25.3225 16.6696C25.3225 18.6352 23.6332 20.2275 21.55 20.2275C19.4668 20.2275 17.7775 18.6343 17.7775 16.6696C17.7775 14.7049 19.4668 13.1117 21.55 13.1117C23.6332 13.1108 25.3225 14.7049 25.3225 16.6696Z" fill="#5C913B"/>
<path d="M24.3892 16.6696C24.3892 18.1489 23.118 19.3473 21.55 19.3473C19.982 19.3473 18.7108 18.148 18.7108 16.6696C18.7108 15.1903 19.982 13.9909 21.55 13.9909C23.118 13.9919 24.3892 15.1912 24.3892 16.6696Z" fill="#C6E5B3"/>
<path d="M14.8225 22.6C16.004 22.6 16.9617 21.7643 16.9617 20.7333C16.9617 19.7024 16.004 18.8667 14.8225 18.8667C13.6411 18.8667 12.6833 19.7024 12.6833 20.7333C12.6833 21.7643 13.6411 22.6 14.8225 22.6Z" fill="#292F33"/>
<path d="M23.5558 21.3699C24.7383 23.5987 21.592 22.2575 19.2494 23.5016C16.9058 24.7457 16.2543 28.102 15.0708 25.8732C13.8874 23.6444 14.8282 20.8295 17.1708 19.5853C19.5144 18.3421 22.3732 19.1411 23.5558 21.3699V21.3699Z" fill="#DD2E44"/>
<path d="M29.7559 20.7333C30.9373 20.7333 31.8951 19.8976 31.8951 18.8667C31.8951 17.8357 30.9373 17 29.7559 17C28.5744 17 27.6167 17.8357 27.6167 18.8667C27.6167 19.8976 28.5744 20.7333 29.7559 20.7333Z" fill="#292F33"/>
<path d="M34.3759 25.9871C32.9162 27.3684 33.2764 24.6692 31.8242 23.1348C30.37 21.6004 27.6559 21.8141 29.1147 20.4319C30.5735 19.0496 32.9358 19.1728 34.388 20.7063C35.8412 22.2397 35.8356 24.6048 34.3759 25.9871Z" fill="#9266CC"/>
<path d="M33.4425 26.9204C31.9828 28.3017 32.3431 25.6025 30.8908 24.0672C29.4367 22.5337 26.7225 22.7465 28.1813 21.3643C29.6401 19.982 32.0024 20.1052 33.4547 21.6387C34.9079 23.1731 34.9023 25.5381 33.4425 26.9204Z" fill="#E1E8ED"/>
<path d="M29.6121 25.7995C30.3411 27.724 27.934 26.3175 25.9105 27.0847C23.8889 27.8509 23.0172 30.4988 22.2883 28.5752C21.5593 26.6525 22.6084 24.4704 24.63 23.7041C26.6525 22.9379 28.8823 23.8768 29.6121 25.7995Z" fill="#DD2E44"/>
<path d="M15.5608 25.0117C15.405 23.5725 18.205 17.1549 23.1834 22.7559C22.0167 22.95 19.1775 22.95 17.8942 24.7392C16.6108 26.5284 15.4442 24.9333 15.5608 25.0117" fill="#EA596E"/>
<path d="M11.7892 25.5951C11.1098 24.6888 13.4226 22.6 15.1726 24.3883C15.9118 23.4941 19.5667 21.7059 20.9284 25.5951C21.551 24.8951 26.6451 24.7392 26.7226 29.0559C26.7608 29.6392 20.8472 29.5281 17.8167 28.8225C16.1442 28.4333 13.0726 27.3059 11.7892 25.5951V25.5951ZM31.4667 28.1608C30.3775 28.4548 32.2068 23.3775 35.6284 24.2333C35.7451 23.3 36.4834 20.2275 38.6226 20.7725C38.7 21.6667 38.6608 26.2157 31.4667 28.1608Z" fill="#A6D388"/>
</svg>
