<svg width="48" height="48" viewBox="0 0 48 48" fill="none" xmlns="http://www.w3.org/2000/svg">
<g clip-path="url(#clip0_144:143)">
<path d="M17.0666 12.7333C16.2 13.6 17.0666 14.4667 17.0666 15.3333C17.0666 16.2 18.8 15.3333 18.8 15.3333C18.8 15.3333 19.6666 14.4667 20.5333 16.2C21.4 17.9333 24 17.0667 23.1333 15.3333C22.2666 13.6 19.6666 14.4667 19.6666 12.7333C19.6666 11 17.0666 12.7333 17.0666 12.7333Z" fill="#FFDC5D"/>
<path d="M24.8667 22.2667C24.8667 22.2667 22.2667 24 22.2667 24.8667C22.2667 25.7333 25.7333 28.3333 26.6 29.2C27.4667 30.0667 29.2 30.0667 28.3333 28.3333C27.4667 26.6 24.8667 22.2667 24.8667 22.2667Z" fill="#F9CA55"/>
<path d="M20.834 10.9142C20.1884 10.3214 18.3545 10.0423 17.435 11.1291C16.6558 11.1447 16.505 11.9178 16.6498 12.3182C16.765 12.638 17.591 12.5661 17.9151 13.1528C18.026 12.9682 18.0009 12.6397 17.9376 12.4742C18.2436 12.6727 18.2574 13.3469 19.3538 13.5766C20.4137 13.7985 20.4085 14.6981 20.4085 14.6981C20.4085 14.6981 20.8774 14.354 21.1564 13.8687C21.6886 12.9405 21.5447 11.5685 20.834 10.9142Z" fill="#FFAC33"/>
<path d="M26.2828 28.3515C26.2828 28.3515 27.2994 29.0353 27.9832 28.0179C28.667 27.0004 29.1662 29.5527 29.1662 29.5527C29.1662 29.5527 26.9484 31.7532 25.248 32.0869C23.5476 32.4205 24.2314 31.4031 24.9143 30.3865L26.2828 28.3515V28.3515Z" fill="#C63900"/>
<path d="M14.4667 27.4667C11.1161 27.4667 8.39999 30.1828 8.39999 33.5333C8.39999 36.8839 11.1161 39.6 14.4667 39.6C17.8172 39.6 20.5333 36.8839 20.5333 33.5333C20.5333 30.1828 17.8181 27.4667 14.4667 27.4667ZM14.4667 37.8667C12.0738 37.8667 10.1333 35.9271 10.1333 33.5333C10.1333 31.1396 12.0738 29.2 14.4667 29.2C16.8595 29.2 18.8 31.1396 18.8 33.5333C18.8 35.9271 16.8604 37.8667 14.4667 37.8667ZM33.5333 27.4667C30.1837 27.4667 27.4667 30.1828 27.4667 33.5333C27.4667 36.8839 30.1837 39.6 33.5333 39.6C36.8847 39.6 39.6 36.8839 39.6 33.5333C39.6 30.1828 36.8847 27.4667 33.5333 27.4667ZM33.5333 37.8667C31.1405 37.8667 29.2 35.9271 29.2 33.5333C29.2 31.1396 31.1405 29.2 33.5333 29.2C35.9271 29.2 37.8667 31.1396 37.8667 33.5333C37.8667 35.9271 35.9271 37.8667 33.5333 37.8667Z" fill="#292F33"/>
<path d="M27.4667 25.7333C27.4667 25.2541 27.0472 24.8667 26.5281 24.8667H17.1386C16.6203 24.8667 16.2 25.2541 16.2 25.7333C16.2 26.2126 16.6203 26.6 17.1386 26.6H26.5272C27.0472 26.6 27.4667 26.2126 27.4667 25.7333ZM34.4 33.5333C34.4 33.0541 34.0126 32.6667 33.5333 32.6667H24C23.5216 32.6667 23.1333 33.0541 23.1333 33.5333C23.1333 34.0126 23.5216 34.4 24 34.4H33.5333C34.0126 34.4 34.4 34.0126 34.4 33.5333Z" fill="#AAB8C2"/>
<path d="M26.7941 23.1333L23.1836 33.2421C23.0232 33.6919 23.2581 34.1885 23.7088 34.3489C23.805 34.3835 23.9029 34.4 24 34.4C24.3562 34.4 24.6898 34.179 24.8164 33.8245L28.6349 23.1333H26.7941Z" fill="#AAB8C2"/>
<path d="M33.5342 34.4C33.2482 34.4 32.9674 34.2579 32.8019 33.9987L26.7352 24.4654C26.4778 24.0615 26.5974 23.5259 27.0013 23.2685C27.406 23.0111 27.9407 23.1307 28.1981 23.5346L34.2648 33.0679C34.5222 33.4718 34.4026 34.0074 33.9987 34.2648C33.854 34.3558 33.6937 34.4 33.5342 34.4V34.4ZM24.8667 30.7028L17.5979 25.0487C17.2209 24.754 16.6767 24.8233 16.382 25.2012C16.0882 25.5799 16.1567 26.1233 16.5345 26.4171L24.3345 32.4838C24.4923 32.6077 24.6795 32.6667 24.8658 32.6667H24.8667V30.7028V30.7028Z" fill="#AAB8C2"/>
<path d="M14.4667 34.4C14.3765 34.4 14.2838 34.3853 14.1928 34.3549C13.7387 34.2041 13.4934 33.7136 13.6451 33.2586L16.0475 26.0514L13.0809 23.8258C12.6978 23.5389 12.6207 22.9955 12.9075 22.6125C13.1944 22.2311 13.7369 22.1523 14.1209 22.4391L18.0876 25.4144L15.29 33.8072C15.1678 34.1703 14.8289 34.4 14.4667 34.4V34.4Z" fill="#AAB8C2"/>
<path d="M31.2653 24.8667C31.2393 24.8667 31.2141 24.8649 31.1881 24.8615L26.2724 24.2479C25.95 24.208 25.7143 23.9237 25.7351 23.5996C25.755 23.2755 26.0237 23.0233 26.3478 23.0233C26.3833 23.0233 29.8725 23.0077 31.5383 21.8975C31.7549 21.7527 32.0427 21.7614 32.2524 21.92C32.4595 22.0803 32.5445 22.3542 32.4613 22.6029L31.8468 24.4463C31.7636 24.7003 31.527 24.8667 31.2653 24.8667V24.8667ZM17.9333 24H13.6C13.1216 24 12.7333 23.6117 12.7333 23.1333C12.7333 22.6549 13.1216 22.2667 13.6 22.2667H17.9333C18.4117 22.2667 18.8 22.6549 18.8 23.1333C18.8 23.6117 18.4117 24 17.9333 24Z" fill="#292F33"/>
<path d="M27.4658 19.6667L24 22.2667L26.6 24.8667L27.4658 19.6667Z" fill="#C63900"/>
<path d="M25.7325 23.1333C25.7325 23.1333 23.9991 25.7333 23.9991 26.6C23.9991 27.4667 24.8658 30.0667 24.8658 32.6667C24.8658 35.2667 26.5991 35.2667 26.5991 34.4C26.5991 33.5333 27.9693 29.7035 26.5991 28.3333C25.7325 27.4667 28.3325 24.8667 28.3325 24.8667L25.7325 23.1333ZM21.9937 19.9241L19.6103 19.2446C19.2229 20.9398 16.9904 23.1325 16.2 23.1325C15.3333 23.1325 14.4667 23.1325 14.4667 23.9991C14.4667 24.8658 14.4667 24.8658 16.2 24.8658C17.9333 24.8658 19.6667 23.1325 20.5333 22.2658C21.0967 21.7025 21.6678 20.7431 21.9937 19.9241V19.9241Z" fill="#FFDC5D"/>
<path d="M27.4658 19.6667L24.8658 23.1333L28.3324 25.7333C28.3324 25.7333 32.6658 21.4 32.6658 19.6667C32.6658 17.9333 30.0658 17.0667 30.0658 17.0667L27.4658 19.6667Z" fill="#DD551F"/>
<path d="M26.5992 14.4658C23.9992 13.5991 21.7588 14.107 20.5325 15.3325C19.6658 16.1991 19.6658 17.0658 19.6658 18.7991C19.6658 18.9517 19.6398 19.1129 19.6026 19.2758L21.9807 19.9553C22.1558 19.5141 22.2667 19.1025 22.2667 18.7991C22.2667 17.9325 23.1334 17.9325 24 18.7991C24.8667 19.6658 25.7334 20.5325 26.6 20.5325C27.4667 20.5325 31.8 17.0658 31.8 17.0658C29.1992 16.1991 28.2441 15.0135 26.5992 14.4658V14.4658Z" fill="#FA743E"/>
<path d="M24.8666 33.5333C24.8666 33.5333 25.7333 34.4 26.6 33.5333C27.4666 32.6667 27.4666 35.2667 27.4666 35.2667C27.4666 35.2667 24.8666 37 23.1333 37C21.4 37 22.2666 36.1333 23.1333 35.2667L24.8666 33.5333ZM17.9333 10.1333C19.6666 9.26667 23.1333 10.1333 21.4 11.8667C20.5333 12.7333 15.3333 13.6 15.3333 13.6C15.3333 12.7333 16.2 11 17.9333 10.1333Z" fill="#DD551F"/>
</g>
<defs>
<clipPath id="clip0_144:143">
<rect width="31.2" height="31.2" fill="white" transform="translate(8.39999 8.4)"/>
</clipPath>
</defs>
</svg>
