<svg width="40" height="40" viewBox="0 0 40 40" fill="none" xmlns="http://www.w3.org/2000/svg">
<path d="M29.4506 31.1671C29.2924 29.8995 28.0569 29.4507 27.4444 29.4507C26.6586 29.4507 24.7849 30.4338 24.4444 28.9307L24.4115 28.768L15.6026 28.7573L15.5555 28.9209C15.2222 30.4391 13.3404 29.4507 12.5529 29.4507C11.9404 29.4507 10.7049 29.8995 10.5466 31.1671C10.5466 31.1671 16.56 33.3333 20 33.3333C23.4426 33.3333 29.4506 31.1671 29.4506 31.1671Z" fill="#4289C1"/>
<path d="M14.8133 19.5067C14.328 19.4258 13.8711 19.7147 13.7902 20.1982L13.0569 24.2516C12.9938 24.2898 12.9307 24.3289 12.864 24.3716C11.2978 25.3769 11.3875 27.5085 10.256 28.4747C10.104 28.6045 9.41244 29.1556 9.18666 29.6525C8.88799 30.3085 9.38221 30.0471 9.22666 30.2702C8.86577 30.7893 8.85866 31.584 9.11377 31.7689L9.44533 31.8578C9.94044 32.216 11.2951 30.6702 11.4729 29.8116C11.7395 28.5289 14.2062 26.9227 14.6631 25.6756C14.8071 25.2809 14.8622 24.976 14.8169 24.7209L15.8 20.1476C15.8809 19.6622 15.2969 19.5867 14.8133 19.5067ZM30.744 30.3218C30.5884 30.0987 31.1324 30.3076 30.8338 29.6516C30.6071 29.1538 29.8658 28.6036 29.7147 28.4738C28.5831 27.5076 28.7227 25.376 27.1564 24.3707C27.0827 24.3227 27.0107 24.2782 26.9404 24.2365L26.2098 20.1982C26.1298 19.7147 25.6702 19.4267 25.1875 19.5067C24.7031 19.5876 24.0898 19.6622 24.1698 20.1467L25.1929 24.7885C25.168 25.0302 25.2249 25.3147 25.3564 25.6756C25.8124 26.9218 28.28 28.528 28.5467 29.8116C28.7253 30.6711 30.08 32.2169 30.5742 31.8578L30.9058 31.7689C31.1627 31.5822 31.1058 30.8409 30.744 30.3218Z" fill="#FFDC5D"/>
<path d="M24.2285 35.84C23.304 35.9191 22.4329 35.6551 21.5618 35.84C21.1396 35.8667 20.8489 35.84 20.4267 35.4702C20.0045 35.1004 13.0605 34.1236 11.7929 33.2791C11.208 32.8889 10.3156 31.9102 10.552 31.088C10.7858 30.2764 11.5645 29.8178 12.5058 29.7947C14.3413 29.7493 17.8391 32.4089 20.3733 33.3858C20.8338 33.5636 21.216 33.3396 21.7991 33.4916C22.4062 33.6498 23.8587 32.9982 24.5982 33.0951C25.6018 33.2276 25.9973 33.7022 25.9182 34.5209C25.8347 35.3867 25.1529 35.7609 24.2285 35.84Z" fill="#FFDC5D"/>
<path d="M24.2285 35.84C23.304 35.9191 22.4329 35.6551 21.5618 35.84C21.1396 35.8667 20.8489 35.84 20.4267 35.4702C20.0045 35.1005 21.2169 33.3378 21.8 33.4898C22.4071 33.648 23.8596 32.9965 24.5991 33.0933C25.6027 33.2258 25.9982 33.7005 25.9191 34.5191C25.8347 35.3867 25.1529 35.7609 24.2285 35.84ZM13.952 33.5165C14.1636 32.9618 15.008 32.7245 15.4045 32.672C15.8009 32.6196 16.4605 32.8569 16.9094 33.0418C17.3582 33.2267 17.9031 33.2498 18.2462 33.1173C18.5894 32.9849 18.84 33.0071 19.0978 33.1173C19.1671 33.1467 19.4738 33.1173 19.5831 33.0578C19.5831 33.0578 21.1742 33.6053 20.5929 33.7902C20.0125 33.9751 15.7742 34.256 15.1938 34.256C14.6134 34.256 13.952 33.5165 13.952 33.5165Z" fill="#F9CA55"/>
<path d="M10.552 31.088C10.5573 31.0702 10.5662 31.0551 10.5716 31.0382C10.7502 31.7155 11.2471 32.5138 11.8169 32.7253C12.5298 32.9893 18.2587 34.6791 18.9716 34.7582C19.6845 34.8373 20.7405 34.9431 20.952 35.1013C21.1636 35.2595 21.7173 35.3129 22.1662 35.2071C22.6151 35.1013 23.7502 35.5235 24.3316 35.392C24.912 35.2604 25.7573 34.9964 25.9156 34.2835C25.9182 34.2702 25.9218 34.264 25.9253 34.2533C25.9289 34.3387 25.928 34.4267 25.9191 34.5218C25.8356 35.3884 25.1538 35.7627 24.2293 35.8418C23.3049 35.9209 22.4338 35.6569 21.5627 35.8418C21.1405 35.8684 20.8498 35.8418 20.4276 35.472C20.0053 35.1022 13.0613 34.1253 11.7938 33.2809C11.208 32.8889 10.3156 31.9093 10.552 31.088Z" fill="#F9CA55"/>
<path d="M15.7716 35.84C16.696 35.9191 17.5671 35.6551 18.4382 35.84C18.8604 35.8667 19.1511 35.84 19.5733 35.4702C19.9956 35.1004 26.9396 34.1236 28.2071 33.2791C28.792 32.8889 29.6844 31.9102 29.448 31.088C29.2142 30.2764 28.4356 29.8178 27.4942 29.7947C25.6587 29.7493 22.1609 32.4089 19.6267 33.3858C19.1662 33.5636 18.784 33.3396 18.2009 33.4916C17.5938 33.6498 16.1413 32.9982 15.4018 33.0951C14.3982 33.2276 14.0027 33.7022 14.0818 34.5209C14.1653 35.3867 14.8471 35.7609 15.7716 35.84Z" fill="#FFDC5D"/>
<path d="M26.6293 21.0276C26.6293 21.0276 26.136 18.3831 24.0302 17.9387C21.5227 17.4098 20.8107 17.3333 20 17.3333C19.1893 17.3333 18.4773 17.4098 15.9698 17.9387C13.864 18.3822 13.3707 21.0276 13.3707 21.0276L15.5556 21.5893C15.5556 21.5893 15.8702 23.5627 15.8702 25.3058C15.8702 27.0489 15.5556 28.8889 15.5556 28.8889C15.5556 28.8889 17.3609 29.1867 20 29.1867C22.6391 29.1867 24.4444 28.8889 24.4444 28.8889C24.4444 28.8889 24.1298 27.048 24.1298 25.3058C24.1298 23.5636 24.4444 21.5893 24.4444 21.5893L26.6293 21.0276Z" fill="#FA743E"/>
<path d="M21.9715 4.17953C20.9573 3.85153 18.5715 3.94131 17.9742 4.71642C16.4231 4.74664 14.6035 6.14842 14.3653 7.99731C14.1289 9.82753 14.6551 10.6773 14.8426 12.0542C15.0551 13.6133 15.9315 14.112 16.632 14.3209C17.64 15.6533 18.712 15.5964 20.512 15.5964C24.0266 15.5964 25.7004 13.2444 25.8489 9.25064C25.9386 6.83464 24.5209 5.00442 21.9715 4.17953Z" fill="#FFAC33"/>
<path d="M18.504 14.592V17.6045C18.504 18.4365 19.1787 19.1111 20.0107 19.1111C20.8427 19.1111 21.5173 18.4373 21.5173 17.6045V14.592H18.504Z" fill="#FFDC5D"/>
<path d="M18.504 16.8436C19.0338 17.0373 20.2507 17.3431 21.5164 16.8285V14.592H18.504V16.8436Z" fill="#F9CA55"/>
<path d="M23.9814 9.42132C23.6409 8.95021 23.2062 8.57155 22.2516 8.43732C22.6098 8.60177 22.9529 9.16799 22.9974 9.48088C23.0418 9.79377 23.0871 10.048 22.8036 9.73421C21.6685 8.4791 20.432 8.97332 19.2071 8.2071C18.3511 7.67199 18.0907 7.0791 18.0907 7.0791C18.0907 7.0791 17.9867 7.86932 16.6889 8.67466C16.3129 8.90843 15.864 9.42843 15.6151 10.1955C15.4365 10.7475 15.4916 11.24 15.4916 12.0809C15.4916 14.536 17.5147 16.6 20.0107 16.6C22.5067 16.6 24.5298 14.5182 24.5298 12.0809C24.5289 10.5547 24.3689 9.95821 23.9814 9.42132Z" fill="#FFDC5D"/>
</svg>
