<svg width="21" height="20" viewBox="0 0 21 20" fill="none" xmlns="http://www.w3.org/2000/svg">
<path d="M10.3899 5C9.40099 5 8.43429 5.29324 7.61204 5.84265C6.7898 6.39206 6.14893 7.17295 5.77049 8.08658C5.39206 9.00021 5.29304 10.0055 5.48597 10.9755C5.67889 11.9454 6.1551 12.8363 6.85436 13.5355C7.55362 14.2348 8.44454 14.711 9.41444 14.9039C10.3843 15.0969 11.3897 14.9978 12.3033 14.6194C13.2169 14.241 13.9978 13.6001 14.5472 12.7779C15.0966 11.9556 15.3899 10.9889 15.3899 10C15.3899 8.67392 14.8631 7.40215 13.9254 6.46447C12.9877 5.52678 11.716 5 10.3899 5ZM10.3899 13C9.79655 13 9.21653 12.8241 8.72318 12.4944C8.22983 12.1648 7.84532 11.6962 7.61825 11.1481C7.39119 10.5999 7.33178 9.99667 7.44754 9.41473C7.56329 8.83279 7.84901 8.29824 8.26857 7.87868C8.68813 7.45912 9.22268 7.1734 9.80462 7.05764C10.3866 6.94189 10.9898 7.0013 11.5379 7.22836C12.0861 7.45542 12.5547 7.83994 12.8843 8.33329C13.2139 8.82664 13.3899 9.40666 13.3899 10C13.3899 10.7956 13.0738 11.5587 12.5112 12.1213C11.9486 12.6839 11.1855 13 10.3899 13ZM15.3899 4C15.1921 4 14.9988 4.05865 14.8343 4.16853C14.6699 4.27841 14.5417 4.43459 14.466 4.61732C14.3903 4.80004 14.3705 5.00111 14.4091 5.19509C14.4477 5.38907 14.5429 5.56725 14.6828 5.70711C14.8226 5.84696 15.0008 5.9422 15.1948 5.98079C15.3888 6.01937 15.5898 5.99957 15.7726 5.92388C15.9553 5.84819 16.1115 5.72002 16.2214 5.55557C16.3312 5.39112 16.3899 5.19778 16.3899 5C16.3899 4.73478 16.2845 4.48043 16.097 4.29289C15.9095 4.10536 15.6551 4 15.3899 4ZM20.3299 6.24C20.3133 5.38542 20.151 4.53995 19.8499 3.74C19.5707 3.01207 19.1415 2.35099 18.5902 1.7997C18.0389 1.2484 17.3778 0.819216 16.6499 0.54C15.8499 0.238899 15.0045 0.0765676 14.1499 0.0599999C13.1799 -5.58794e-08 12.8599 0 10.3899 0C7.91989 0 7.59989 -5.58794e-08 6.62989 0.0599999C5.77532 0.0765676 4.92984 0.238899 4.12989 0.54C3.40196 0.819216 2.74088 1.2484 2.18959 1.7997C1.6383 2.35099 1.20911 3.01207 0.929893 3.74C0.628792 4.53995 0.46646 5.38542 0.449893 6.24C0.389893 7.22 0.389893 7.54 0.389893 10C0.389893 12.46 0.389893 12.78 0.449893 13.76C0.46646 14.6146 0.628792 15.4601 0.929893 16.26C1.20911 16.9879 1.6383 17.649 2.18959 18.2003C2.74088 18.7516 3.40196 19.1808 4.12989 19.46C4.92984 19.7611 5.77532 19.9234 6.62989 19.94C7.62989 19.94 7.91989 20 10.3899 20C12.8599 20 13.1799 20 14.1499 19.94C15.0045 19.9234 15.8499 19.7611 16.6499 19.46C17.3778 19.1808 18.0389 18.7516 18.5902 18.2003C19.1415 17.649 19.5707 16.9879 19.8499 16.26C20.151 15.4601 20.3133 14.6146 20.3299 13.76C20.3299 12.76 20.3899 12.46 20.3899 10C20.3899 7.54 20.3899 7.22 20.3299 6.24ZM18.3299 13.67C18.3124 14.3046 18.1942 14.9324 17.9799 15.53C17.8027 16.0023 17.5226 16.4293 17.1599 16.78C16.8113 17.1428 16.3835 17.4201 15.9099 17.59C15.3109 17.8131 14.6789 17.9348 14.0399 17.95C13.0999 17.95 12.8099 18 10.3799 18C7.94989 18 7.66989 18 6.72989 18C6.09191 17.9835 5.46064 17.8654 4.85989 17.65C4.38755 17.4728 3.96056 17.1927 3.60989 16.83C3.24705 16.4814 2.96981 16.0536 2.79989 15.58C2.5777 14.9842 2.45604 14.3557 2.43989 13.72C2.43989 12.72 2.43989 12.47 2.43989 10.05C2.43989 7.63 2.43989 7.34 2.43989 6.38C2.45713 5.74121 2.57873 5.10954 2.79989 4.51C2.97245 4.04063 3.24943 3.61662 3.60989 3.27C3.95847 2.90715 4.3863 2.62992 4.85989 2.46C5.45888 2.2369 6.09088 2.11523 6.72989 2.1C7.66989 2 7.95989 2 10.3899 2C12.8199 2 13.1099 2 14.0499 2C14.692 2.01633 15.3271 2.13794 15.9299 2.36C16.3993 2.53256 16.8233 2.80953 17.1699 3.17C17.5327 3.51858 17.81 3.94641 17.9799 4.42C18.2247 5.02856 18.3634 5.67458 18.3899 6.33C18.3899 7.33 18.4399 7.58 18.4399 10C18.4399 12.42 18.3899 12.71 18.3899 13.67H18.3299Z" fill="#FF4D59"/>
</svg>
