<svg width="48" height="48" viewBox="0 0 48 48" fill="none" xmlns="http://www.w3.org/2000/svg">
<g clip-path="url(#clip0_144:141)">
<path d="M28.3446 29.4791L23.5381 24.6725L18.7307 19.866C18.7307 19.866 19.125 29.5579 9.03876 32.0799C9.03876 32.0799 9.93316 34.2353 11.9542 36.2564C13.9753 38.2775 16.1307 39.1719 16.1307 39.1719C18.6527 29.0847 28.3446 29.4791 28.3446 29.4791Z" fill="#77B255"/>
<path d="M20.386 22.7815C19.756 25.9335 15.973 30.9766 15.973 30.9766L23.5372 23.4124C26.0584 20.8913 20.386 22.7815 20.386 22.7815ZM31.1024 28.4546C31.1024 28.4546 21.647 29.0847 15.973 33.4978C22.9072 26.5636 26.0592 25.9335 26.0592 25.9335L31.1024 28.4546Z" fill="#5C913B"/>
<path d="M34.5352 32.8331C35.1133 32.8721 35.7035 32.6788 36.1455 32.2368C36.9576 31.4247 36.9576 30.1074 36.1455 29.2953C36.0718 29.2217 35.9895 29.1619 35.908 29.1012C36.2642 29.0137 36.6031 28.8377 36.8813 28.5595C37.1508 28.29 37.3224 27.9633 37.4126 27.6201C37.7558 27.5291 38.0825 27.3583 38.352 27.0888C39.1641 26.2767 39.1641 24.9594 38.352 24.1473C39.1641 23.3353 39.1641 22.0179 38.352 21.2059C38.047 20.9008 37.6708 20.7101 37.2765 20.6347C37.6492 19.8608 37.5226 18.9066 36.8813 18.2644C36.6031 17.9862 36.2642 17.8103 35.908 17.7227C35.9895 17.6621 36.0718 17.6023 36.1455 17.5286C36.9576 16.7165 36.9576 15.3992 36.1455 14.5871C35.5033 13.9449 34.5491 13.8184 33.7752 14.1919C33.6989 13.7976 33.5091 13.4215 33.204 13.1164C32.762 12.6744 32.1718 12.482 31.5938 12.5201C31.6328 11.9421 31.4395 11.3519 30.9975 10.9099C30.1854 10.0978 28.8681 10.0978 28.056 10.9099C27.4138 10.2677 26.4596 10.1411 25.6857 10.5147C25.6094 10.1203 25.4196 9.74419 25.1146 9.43913C24.3025 8.62706 22.9852 8.62706 22.1731 9.43913C21.868 9.74419 21.6774 10.1203 21.602 10.5147C20.828 10.142 19.8738 10.2685 19.2316 10.9099C18.9534 11.1881 18.7775 11.5269 18.69 11.8831C18.6293 11.8017 18.5695 11.7193 18.4958 11.6457C17.6838 10.8336 16.3664 10.8336 15.5544 11.6457C14.9113 12.2861 14.7848 13.2403 15.1574 14.0151C14.7631 14.0905 14.387 14.2812 14.0819 14.5863C13.2698 15.3983 13.2698 16.7157 14.0819 17.5277C14.3601 17.8059 14.699 17.9819 15.0552 18.0694C14.9737 18.1301 14.8914 18.1899 14.8177 18.2635C14.0056 19.0756 14.0056 20.3929 14.8177 21.205C15.1228 21.5101 15.4989 21.7007 15.8932 21.7761C15.5206 22.5501 15.6471 23.5043 16.2884 24.1465C16.9306 24.7887 17.8848 24.9152 18.6588 24.5417C18.735 24.936 18.9248 25.3121 19.2299 25.6172C19.5081 25.8954 19.847 26.0713 20.2032 26.1589C20.1217 26.2195 20.0394 26.2793 19.9657 26.353C19.1536 27.1651 19.1536 28.4824 19.9657 29.2945C20.6079 29.9367 21.5621 30.0632 22.336 29.6897C22.4123 30.084 22.6021 30.4601 22.9072 30.7652C23.4584 31.3164 24.2392 31.4845 24.9395 31.2878C24.995 31.3606 25.047 31.4343 25.1137 31.501C25.5557 31.943 26.1459 32.1354 26.724 32.0973C26.685 32.6753 26.8782 33.2655 27.3202 33.7075C28.1323 34.5196 29.4496 34.5196 30.2617 33.7075C30.3354 33.6339 30.3952 33.5515 30.4558 33.4701C30.5434 33.8263 30.7193 34.1651 30.9975 34.4433C31.8096 35.2554 33.1269 35.2554 33.939 34.4433C34.381 34.0013 34.5734 33.4111 34.5352 32.8331Z" fill="#3E721D"/>
<path d="M17.864 14.6625C18.6026 14.6625 19.2013 14.0638 19.2013 13.3253C19.2013 12.5867 18.6026 11.988 17.864 11.988C17.1254 11.988 16.5267 12.5867 16.5267 13.3253C16.5267 14.0638 17.1254 14.6625 17.864 14.6625Z" fill="#5C913B"/>
<path d="M21.647 14.6625C22.3855 14.6625 22.9842 14.0638 22.9842 13.3253C22.9842 12.5867 22.3855 11.988 21.647 11.988C20.9084 11.988 20.3097 12.5867 20.3097 13.3253C20.3097 14.0638 20.9084 14.6625 21.647 14.6625Z" fill="#5C913B"/>
<path d="M24.1681 12.1414C24.9067 12.1414 25.5054 11.5427 25.5054 10.8041C25.5054 10.0656 24.9067 9.46686 24.1681 9.46686C23.4296 9.46686 22.8309 10.0656 22.8309 10.8041C22.8309 11.5427 23.4296 12.1414 24.1681 12.1414Z" fill="#5C913B"/>
<path d="M27.3202 14.0324C28.0587 14.0324 28.6574 13.4337 28.6574 12.6952C28.6574 11.9566 28.0587 11.3579 27.3202 11.3579C26.5816 11.3579 25.9829 11.9566 25.9829 12.6952C25.9829 13.4337 26.5816 14.0324 27.3202 14.0324Z" fill="#5C913B"/>
<path d="M29.8414 14.0324C30.5799 14.0324 31.1786 13.4337 31.1786 12.6952C31.1786 11.9566 30.5799 11.3579 29.8414 11.3579C29.1028 11.3579 28.5041 11.9566 28.5041 12.6952C28.5041 13.4337 29.1028 14.0324 29.8414 14.0324Z" fill="#5C913B"/>
<path d="M30.4723 15.9235C31.2108 15.9235 31.8095 15.3248 31.8095 14.5863C31.8095 13.8477 31.2108 13.249 30.4723 13.249C29.7337 13.249 29.135 13.8477 29.135 14.5863C29.135 15.3248 29.7337 15.9235 30.4723 15.9235Z" fill="#5C913B"/>
<path d="M32.3633 16.5536C33.1019 16.5536 33.7006 15.9549 33.7006 15.2163C33.7006 14.4778 33.1019 13.8791 32.3633 13.8791C31.6248 13.8791 31.0261 14.4778 31.0261 15.2163C31.0261 15.9549 31.6248 16.5536 32.3633 16.5536Z" fill="#5C913B"/>
<path d="M34.8844 17.8146C35.623 17.8146 36.2217 17.2159 36.2217 16.4773C36.2217 15.7388 35.623 15.14 34.8844 15.14C34.1459 15.14 33.5472 15.7388 33.5472 16.4773C33.5472 17.2159 34.1459 17.8146 34.8844 17.8146Z" fill="#5C913B"/>
<path d="M34.2544 19.7057C34.9929 19.7057 35.5916 19.1069 35.5916 18.3684C35.5916 17.6298 34.9929 17.0311 34.2544 17.0311C33.5158 17.0311 32.9171 17.6298 32.9171 18.3684C32.9171 19.1069 33.5158 19.7057 34.2544 19.7057Z" fill="#5C913B"/>
<path d="M36.1454 22.8577C36.884 22.8577 37.4827 22.259 37.4827 21.5205C37.4827 20.7819 36.884 20.1832 36.1454 20.1832C35.4069 20.1832 34.8082 20.7819 34.8082 21.5205C34.8082 22.259 35.4069 22.8577 36.1454 22.8577Z" fill="#5C913B"/>
<path d="M36.7755 26.0098C37.5141 26.0098 38.1128 25.4111 38.1128 24.6725C38.1128 23.934 37.5141 23.3353 36.7755 23.3353C36.0369 23.3353 35.4382 23.934 35.4382 24.6725C35.4382 25.4111 36.0369 26.0098 36.7755 26.0098Z" fill="#5C913B"/>
<path d="M31.7324 19.7057C32.471 19.7057 33.0697 19.1069 33.0697 18.3684C33.0697 17.6298 32.471 17.0311 31.7324 17.0311C30.9939 17.0311 30.3951 17.6298 30.3951 18.3684C30.3951 19.1069 30.9939 19.7057 31.7324 19.7057Z" fill="#5C913B"/>
<path d="M29.2112 17.1845C29.9498 17.1845 30.5485 16.5858 30.5485 15.8472C30.5485 15.1087 29.9498 14.51 29.2112 14.51C28.4727 14.51 27.874 15.1087 27.874 15.8472C27.874 16.5858 28.4727 17.1845 29.2112 17.1845Z" fill="#5C913B"/>
<path d="M26.0592 15.2935C26.7977 15.2935 27.3965 14.6947 27.3965 13.9562C27.3965 13.2176 26.7977 12.6189 26.0592 12.6189C25.3206 12.6189 24.7219 13.2176 24.7219 13.9562C24.7219 14.6947 25.3206 15.2935 26.0592 15.2935Z" fill="#5C913B"/>
<path d="M22.277 16.5536C23.0156 16.5536 23.6143 15.9549 23.6143 15.2163C23.6143 14.4778 23.0156 13.8791 22.277 13.8791C21.5385 13.8791 20.9398 14.4778 20.9398 15.2163C20.9398 15.9549 21.5385 16.5536 22.277 16.5536Z" fill="#5C913B"/>
<path d="M23.5381 15.2935C24.2766 15.2935 24.8753 14.6947 24.8753 13.9562C24.8753 13.2176 24.2766 12.6189 23.5381 12.6189C22.7995 12.6189 22.2008 13.2176 22.2008 13.9562C22.2008 14.6947 22.7995 15.2935 23.5381 15.2935Z" fill="#5C913B"/>
<path d="M19.7551 17.8146C20.4936 17.8146 21.0923 17.2159 21.0923 16.4773C21.0923 15.7388 20.4936 15.14 19.7551 15.14C19.0165 15.14 18.4178 15.7388 18.4178 16.4773C18.4178 17.2159 19.0165 17.8146 19.7551 17.8146Z" fill="#5C913B"/>
<path d="M26.0592 19.0756C26.7977 19.0756 27.3965 18.4769 27.3965 17.7383C27.3965 16.9998 26.7977 16.4011 26.0592 16.4011C25.3206 16.4011 24.7219 16.9998 24.7219 17.7383C24.7219 18.4769 25.3206 19.0756 26.0592 19.0756Z" fill="#5C913B"/>
<path d="M30.4723 23.4878C31.2108 23.4878 31.8095 22.8891 31.8095 22.1505C31.8095 21.412 31.2108 20.8133 30.4723 20.8133C29.7337 20.8133 29.135 21.412 29.135 22.1505C29.135 22.8891 29.7337 23.4878 30.4723 23.4878Z" fill="#5C913B"/>
<path d="M31.7324 27.2708C32.471 27.2708 33.0697 26.6721 33.0697 25.9335C33.0697 25.195 32.471 24.5963 31.7324 24.5963C30.9939 24.5963 30.3951 25.195 30.3951 25.9335C30.3951 26.6721 30.9939 27.2708 31.7324 27.2708Z" fill="#5C913B"/>
</g>
<defs>
<clipPath id="clip0_144:141">
<rect width="31.2" height="31.2" fill="white" transform="translate(8.39999 8.39999)"/>
</clipPath>
</defs>
</svg>
