<svg width="23" height="22" viewBox="0 0 23 22" fill="none" xmlns="http://www.w3.org/2000/svg">
<path d="M21.6546 1.42773C21.3699 1.19086 21.0262 1.03563 20.6603 0.978535C20.2944 0.921444 19.9198 0.964638 19.5765 1.10352L1.65555 8.33887C1.2723 8.49655 0.946069 8.76706 0.720152 9.11449C0.494236 9.46192 0.37932 9.86983 0.390658 10.2841C0.401995 10.6984 0.53905 11.0994 0.78363 11.4339C1.02821 11.7685 1.36875 12.0207 1.76005 12.1572L5.38505 13.418L7.40555 20.0996C7.43301 20.1889 7.47286 20.2738 7.52393 20.352C7.53168 20.364 7.54261 20.3729 7.55085 20.3846C7.60986 20.4669 7.68117 20.5397 7.76228 20.6003C7.78535 20.6179 7.80744 20.6344 7.8321 20.65C7.92704 20.713 8.03217 20.7591 8.14283 20.7861L8.15467 20.7871L8.16138 20.79C8.22792 20.8035 8.29563 20.8104 8.36353 20.8105C8.37006 20.8105 8.37586 20.8074 8.38233 20.8073C8.48479 20.8055 8.58636 20.7878 8.68342 20.755C8.706 20.7473 8.72535 20.7344 8.74726 20.7251C8.81964 20.6951 8.88821 20.6567 8.95155 20.6106C9.00227 20.5678 9.05301 20.5251 9.10377 20.4824L11.8059 17.499L15.8362 20.6211C16.191 20.8973 16.6277 21.0475 17.0774 21.0478C17.5486 21.0472 18.0052 20.8847 18.3708 20.5874C18.7364 20.2901 18.9886 19.8762 19.0852 19.415L22.3479 3.39844C22.4219 3.03796 22.3964 2.66416 22.2743 2.31703C22.1521 1.9699 21.9379 1.6625 21.6546 1.42773ZM8.76005 13.7363C8.62139 13.8744 8.52661 14.0504 8.48759 14.2422L8.17808 15.7462L7.39402 13.1531L11.4593 11.0362L8.76005 13.7363ZM17.0618 19.04L12.2991 15.3505C12.0999 15.1966 11.8499 15.1233 11.5991 15.1454C11.3482 15.1675 11.1149 15.2833 10.9456 15.4697L10.0802 16.4249L10.386 14.9384L17.469 7.85544C17.6381 7.6866 17.7411 7.4628 17.7594 7.22456C17.7777 6.98633 17.71 6.74942 17.5687 6.55676C17.4274 6.36409 17.2218 6.2284 16.989 6.17428C16.7563 6.12015 16.5119 6.15116 16.3001 6.26169L6.1348 11.5543L2.41044 10.1914L20.3889 2.999L17.0618 19.04Z" fill="#FF4D59"/>
</svg>
