<svg width="48" height="48" viewBox="0 0 48 48" fill="none" xmlns="http://www.w3.org/2000/svg">
<g clip-path="url(#clip0_141:38844)">
<path d="M36.1656 25.4184L29.0712 18.3344L18.484 29.232L25.4312 36.18L25.432 36.1792C26.8072 37.5512 28.7048 38.4 30.8 38.4C34.9968 38.4 38.4 34.9968 38.4 30.8C38.4 28.6976 37.5456 26.7944 36.1656 25.4184Z" fill="#5DADEC"/>
<path d="M22.3368 11.6104C20.9832 10.3656 19.1832 9.60001 17.2 9.60001C13.0024 9.60001 9.60001 13.0024 9.60001 17.2C9.60001 19.1832 10.3664 20.984 11.6112 22.3368L11.6 22.348L18.484 29.232L29.0712 18.3344L22.3368 11.6104Z" fill="#AAD8FC"/>
</g>
<defs>
<clipPath id="clip0_141:38844">
<rect width="28.8" height="28.8" fill="white" transform="translate(9.60001 9.60001)"/>
</clipPath>
</defs>
</svg>
