<svg width="21" height="18" viewBox="0 0 21 18" fill="none" xmlns="http://www.w3.org/2000/svg">
<path d="M20.3899 2.8C19.6382 3.12609 18.8433 3.34166 18.0299 3.44C18.8881 2.92732 19.5312 2.12078 19.8399 1.17C19.0334 1.65006 18.1507 1.9883 17.2299 2.17C16.6144 1.50257 15.7949 1.0583 14.8997 0.906851C14.0045 0.755406 13.0844 0.905358 12.2837 1.33319C11.4829 1.76102 10.8468 2.44253 10.4751 3.27084C10.1034 4.09914 10.0172 5.02739 10.2299 5.91C8.59932 5.82753 7.00433 5.40295 5.54855 4.66386C4.09276 3.92477 2.80874 2.88769 1.77989 1.62C1.41903 2.25017 1.22941 2.96382 1.22989 3.69C1.22861 4.36438 1.39411 5.02862 1.71165 5.62356C2.02919 6.21851 2.48891 6.72571 3.04989 7.1C2.39787 7.08226 1.75978 6.9073 1.18989 6.59V6.64C1.19478 7.58489 1.52589 8.49909 2.12721 9.22797C2.72853 9.95684 3.56315 10.4556 4.48989 10.64C4.13315 10.7486 3.76277 10.8058 3.38989 10.81C3.13178 10.807 2.87431 10.7836 2.61989 10.74C2.8838 11.5528 3.39452 12.2631 4.08097 12.7722C4.76742 13.2812 5.59547 13.5636 6.44989 13.58C5.0071 14.7153 3.22578 15.3349 1.38989 15.34C1.05563 15.3411 0.721628 15.3211 0.389893 15.28C2.26432 16.4903 4.44871 17.1327 6.67989 17.13C8.21958 17.146 9.74703 16.855 11.173 16.2741C12.599 15.6931 13.8949 14.8339 14.9851 13.7465C16.0753 12.6591 16.9379 11.3654 17.5224 9.94091C18.107 8.51642 18.4019 6.98973 18.3899 5.45C18.3899 5.28 18.3899 5.1 18.3899 4.92C19.1746 4.33481 19.8514 3.61742 20.3899 2.8Z" fill="#FF4D59"/>
</svg>
