<svg width="21" height="21" viewBox="0 0 21 21" fill="none" xmlns="http://www.w3.org/2000/svg">
<path d="M14.9899 13C14.7899 12.9 13.4899 12.3 13.2899 12.2C13.0899 12.1 12.8899 12.1 12.6899 12.3C12.4899 12.5 12.0899 13.1 11.8899 13.3C11.7899 13.5 11.5899 13.5 11.3899 13.4C10.6899 13.1 9.98989 12.7 9.38989 12.2C8.88989 11.7 8.38989 11.1 7.98989 10.5C7.88989 10.3 7.98989 10.1 8.08989 10C8.18989 9.9 8.28989 9.7 8.48989 9.6C8.58989 9.5 8.68989 9.3 8.68989 9.2C8.78989 9.1 8.78989 8.9 8.68989 8.8C8.58989 8.7 8.08989 7.5 7.88989 7C7.78989 6.3 7.58989 6.3 7.38989 6.3C7.28989 6.3 7.08989 6.3 6.88989 6.3C6.68989 6.3 6.38989 6.5 6.28989 6.6C5.68989 7.2 5.38989 7.9 5.38989 8.7C5.48989 9.6 5.78989 10.5 6.38989 11.3C7.48989 12.9 8.88989 14.2 10.5899 15C11.0899 15.2 11.4899 15.4 11.9899 15.5C12.4899 15.7 12.9899 15.7 13.5899 15.6C14.2899 15.5 14.8899 15 15.2899 14.4C15.4899 14 15.4899 13.6 15.3899 13.2C15.3899 13.2 15.1899 13.1 14.9899 13ZM17.4899 3.9C13.5899 -1.43051e-06 7.28989 -1.43051e-06 3.38989 3.9C0.189893 7.1 -0.410107 12 1.78989 15.9L0.389893 21L5.68989 19.6C7.18989 20.4 8.78989 20.8 10.3899 20.8C15.8899 20.8 20.2899 16.4 20.2899 10.9C20.3899 8.3 19.2899 5.8 17.4899 3.9ZM14.7899 17.9C13.4899 18.7 11.9899 19.2 10.3899 19.2C8.88989 19.2 7.48989 18.8 6.18989 18.1L5.88989 17.9L2.78989 18.7L3.58989 15.7L3.38989 15.4C0.989892 11.4 2.18989 6.4 6.08989 3.9C9.98989 1.4 14.9899 2.7 17.3899 6.5C19.7899 10.4 18.6899 15.5 14.7899 17.9Z" fill="#FF4D59"/>
</svg>
