<svg width="36" height="36" viewBox="0 0 36 36" fill="none" xmlns="http://www.w3.org/2000/svg">
<rect width="35.56" height="35.56" rx="4" fill="#E1E8ED"/>
<path d="M10.7071 12.1213L23.435 24.8492C23.6225 25.0368 23.8769 25.1421 24.1421 25.1421C24.4073 25.1421 24.6617 25.0368 24.8492 24.8492C25.0367 24.6617 25.1421 24.4074 25.1421 24.1421C25.1421 23.8769 25.0367 23.6226 24.8492 23.435L12.1213 10.7071C11.9338 10.5196 11.6794 10.4142 11.4142 10.4142C11.149 10.4142 10.8946 10.5196 10.7071 10.7071C10.5195 10.8946 10.4142 11.149 10.4142 11.4142C10.4142 11.6794 10.5195 11.9338 10.7071 12.1213Z" fill="#2C3F4E"/>
<path d="M12.1213 24.8493L24.8492 12.1213C25.0368 11.9338 25.1421 11.6794 25.1421 11.4142C25.1421 11.149 25.0368 10.8947 24.8492 10.7071C24.6617 10.5196 24.4074 10.4142 24.1421 10.4142C23.8769 10.4142 23.6226 10.5196 23.435 10.7071L10.7071 23.435C10.5196 23.6226 10.4142 23.8769 10.4142 24.1422C10.4142 24.4074 10.5196 24.6617 10.7071 24.8493C10.8946 25.0368 11.149 25.1422 11.4142 25.1422C11.6794 25.1422 11.9338 25.0368 12.1213 24.8493Z" fill="#2C3F4E"/>
</svg>
