<svg xmlns="http://www.w3.org/2000/svg" xmlns:xlink="http://www.w3.org/1999/xlink" width="124" height="86.611" viewBox="0 0 124 86.611">
  <defs>
    <clipPath id="clip-path">
      <path id="Clip_8" data-name="Clip 8" d="M0,0H124V86.611H0Z" transform="translate(0 0.025)" fill="none"/>
    </clipPath>
  </defs>
  <g id="LOGO" transform="translate(0 0)">
    <g id="Logo_Descola_-_Atual_menor" data-name="Logo Descola - Atual menor" transform="translate(0 -0.025)">
      <g id="Group_3" data-name="Group 3" transform="translate(11 3)">
        <path id="Fill_1" data-name="Fill 1" d="M4.835,37.244,42.861,0,57.182,10.775l2.963-5.388,15.062.7L91.251,3.474,91.5,7.027,84.1,12.181l-.72,1.581,10.536.156-.288,21.12L75.352,39.333,0,48" transform="translate(0.709 0.221)" fill="#fff"/>
      </g>
      <g id="Group_6" data-name="Group 6" transform="translate(5 49)">
        <path id="Fill_4" data-name="Fill 4" d="M3.8,4.09,98.169,0l16.778,30.791-5.968-.039-12.73-3.087-.125.463-.209,2.392L73.376,31.6l-5.259-1.312-1.794,2.662L53.384,36l-6.469-2.547-1.169.618-.334,1.852-16.779-.039L0,5.827" transform="translate(0.239 0.516)" fill="#fff"/>
      </g>
      <g id="Group_9" data-name="Group 9">
        <path id="Clip_8-2" data-name="Clip 8" d="M0,0H124V86.611H0Z" transform="translate(0 0.025)" fill="none"/>
        <g id="Group_9-2" data-name="Group 9" clip-path="url(#clip-path)">
          <path id="Fill_7" data-name="Fill 7" d="M32.785,85.306a.307.307,0,0,1-.224-.1L.1,51.428l-.006-.007v-.01a.371.371,0,0,1-.079-.143.018.018,0,0,0,0-.012.345.345,0,0,1,.1-.32L51.075,0l13.74,10.2,3.629-4.36,16.39.389,16.44-3.487-.312,6.5-8.533,5.051,9.9.381.284,23.7-18.4,4.2L11.466,50.351l90.1-4.37h.018a.322.322,0,0,1,.286.172l17,32.875a.3.3,0,0,1,.02.236.311.311,0,0,1-.158.182.341.341,0,0,1-.149.034l-6.972-.067a.672.672,0,0,1-.1-.014L100.4,75.892a.322.322,0,0,0-.1-.016.314.314,0,0,0-.3.211.277.277,0,0,0-.015.09l-.114,3.012a.319.319,0,0,1-.3.3L77.364,80.507h-.017a.351.351,0,0,1-.1-.015l-4-1.354a.328.328,0,0,0-.107-.018.322.322,0,0,0-.259.129l-1.9,2.569a.3.3,0,0,1-.183.12L57.632,85a.356.356,0,0,1-.08.009.344.344,0,0,1-.116-.02l-5.972-2.4a.316.316,0,0,0-.44.293l.031,1.878a.306.306,0,0,1-.088.222.318.318,0,0,1-.222.1L32.8,85.306Zm15.14-31.489h0L32.38,55.309l1.4,28.116L49,83.26l.035-4.578-11.517.255c-.01-.176-1.151-19.805-1.177-20.075,0,.01.06.015.165.015,1.394,0,11.113-.9,11.526-.935l-.1-4.126Zm4.708-.109h0l.677,25.847,4.363,3.328L69.817,80.1l1.874-2.511-.884-22.681-3.219-2.944-.18.022c-3.334.4-14.253,1.722-14.758,1.722Zm26.309-4.158-3.722.668,1.247,24.644,1.4,3.493L90.9,77.7l.208-4.2-10.993,1L78.942,49.549Zm28.786,18.226h0l4.311,9.7,4,.165-15.371-29.66H96.46L94.953,77.37l3.118-.106.311-8.618,9.346-.871ZM52.044,2.784h0L48.409,41.11l13.916-6.974,2.023-22.3-12.3-9.051ZM97.082,19.569h0L97.5,33.692,84.256,35.927l-.1,3.816,16.461-3.652-.052-19.958L87.526,15.7V11.118L99.107,7.3V4.684L85.5,7.464l-1.088,12.16ZM69.335,7.36c-.1.158-2.144,28.447-2.231,29.651v.012l10.8.329V33.973l-7.269-.165.259-6.922,8.983.214.105-3.82-8.62-.107L72.3,11.5l8.983-.11-.051-3.762L69.335,7.36h0ZM57.875,79.172h0l-1.443-1.79L56.037,57.03l10.44-1.319,1.441,1.472.924,18.8-1.856,2-9.111,1.193ZM98.9,65.815h0L99.264,50.5l6.958,14.995-7.32.325Zm-46.908-30v0L54.795,9.8c.008,0,.066.036.168.094,2.613,1.479,7,3.98,7,4.108,0,.158-1.741,17.79-1.815,18.54l-8.151,3.272Z" transform="translate(3.351 2.062)" fill="#161412"/>
        </g>
      </g>
    </g>
  </g>
</svg>
